<svg viewBox="0 -5 349.99999999999994 214.85809377066883" height="214.85809377066883" width="349.99999999999994" style="width: 350px; height: 214.858px; position: absolute; top: 50%; left: 50%; transform: translate(-50%, -50%) scale(0.515429); z-index: 0; cursor: pointer;"><defs id="SvgjsDefs1072"></defs><g id="SvgjsG1073" featurekey="symbolFeature-0" transform="matrix(1.2157135024244492,0,0,1.2157135024244492,113.33313124245913,-10.347923901218627)" fill="#ffffff"><g xmlns="http://www.w3.org/2000/svg"><path fill="none" d="M84.771,24.581c-3.654-1.658-7.432-3.373-10.199-6.501c-6.626-7.492-12.751-10.98-19.275-10.98   c-9.826,0-20.166,8.324-31.112,17.136C9.616,35.953,4.164,50.915,9.225,65.285c5.152,14.627,20.463,25.659,35.616,25.661   c0.001,0,0.003,0,0.003,0c13.964,0,25.645-8.868,32.891-24.973c3.669-8.154,7.748-12.598,11.025-16.168   c3.622-3.945,6.238-6.796,6.524-12.779C95.644,29.515,90.605,27.228,84.771,24.581z M62.119,54.52   c-1.357,9.411-10.088,15.942-19.5,14.585c-9.412-1.357-15.941-10.087-14.583-19.5c1.357-9.413,10.087-15.941,19.499-14.585   C56.947,36.377,63.477,45.107,62.119,54.52z"></path><path d="M85.886,22.122c-3.396-1.541-6.906-3.134-9.292-5.832C69.516,8.289,62.55,4.399,55.296,4.399   c-10.778,0-21.478,8.614-32.805,17.733C6.977,34.61,1.213,50.666,6.678,66.182c5.604,15.912,21.654,27.463,38.162,27.465   c0.002,0,0.002,0,0.004,0c8.742,0,24.955-3.453,35.354-26.565c3.49-7.757,7.405-12.021,10.552-15.449   c3.854-4.2,6.899-7.517,7.232-14.476C98.429,27.813,92.052,24.92,85.886,22.122z M95.285,37.027   c-0.286,5.983-2.902,8.833-6.524,12.779c-3.277,3.57-7.356,8.014-11.025,16.168c-7.246,16.104-18.927,24.973-32.891,24.973   c0,0-0.002,0-0.003,0C29.688,90.944,14.377,79.912,9.225,65.285c-5.062-14.37,0.391-29.332,14.958-41.05   C35.13,15.423,45.47,7.099,55.296,7.099c6.524,0,12.649,3.489,19.275,10.98c2.768,3.128,6.545,4.843,10.199,6.501   C90.605,27.228,95.644,29.515,95.285,37.027z"></path><path d="M47.534,35.02c-9.412-1.356-18.142,5.172-19.499,14.585c-1.358,9.413,5.171,18.143,14.583,19.5   c9.413,1.357,18.143-5.174,19.5-14.585C63.477,45.107,56.947,36.377,47.534,35.02z M42.484,66.514   c-0.531-0.077-0.899-0.57-0.823-1.101c0.076-0.531,0.569-0.9,1.101-0.823c7.025,1.013,13.565-3.877,14.577-10.904   c0.078-0.531,0.569-0.899,1.102-0.822c0.529,0.076,0.898,0.568,0.823,1.1C58.097,62.049,50.571,67.68,42.484,66.514z    M59.488,50.138c-0.087,0.61-0.655,1.038-1.269,0.949s-1.037-0.659-0.95-1.268c0.089-0.614,0.656-1.039,1.271-0.95   C59.152,48.958,59.577,49.525,59.488,50.138z"></path></g></g><g id="SvgjsG1074" featurekey="nameFeature-0" transform="matrix(2.887788669808189,0,0,2.887788669808189,-1.1551153990730285,94.34654422433138)" fill="#ffffff"><path d="M5.16 40 l0 -4.48 l0.84 -0.56 l0 -5.36 l-4.44 -12.36 l-1.16 -0.76 l0 -4.48 l4.6 0 l3.52 9.72 l3.52 -9.72 l4.6 0 l0 4.48 l-1.16 0.76 l-4.44 12.28 l0 5.48 l0.84 0.52 l0 4.48 l-6.72 0 z M19.752 40 l0 -4.48 l0.84 -0.56 l3.64 -17.92 l-0.84 -0.56 l0 -4.48 l10.64 0 l0 4.48 l-0.84 0.56 l3.64 17.92 l0.84 0.56 l0 4.48 l-4.96 0 l-1.24 -6.16 l-5.52 0 l-1.24 6.16 l-4.96 0 z M26.992 28.8 l3.44 0 l-1.72 -8.56 z M41.584 40 l0 -4.48 l0.84 -0.56 l0 -17.92 l-0.84 -0.56 l0 -4.48 l12.8 0 l3.72 3.72 l0 10.76 l-3.72 3.72 l-6.92 0 l0 4.76 l0.84 0.56 l0 4.48 l-6.72 0 z M47.464 25.16 l4.84 0 l0.76 -0.76 l0 -6.6 l-0.76 -0.76 l-4.84 0 l0 8.12 z M62.016 40 l0 -4.48 l0.84 -0.56 l3.64 -17.92 l-0.84 -0.56 l0 -4.48 l10.64 0 l0 4.48 l-0.84 0.56 l3.64 17.92 l0.84 0.56 l0 4.48 l-4.96 0 l-1.24 -6.16 l-5.52 0 l-1.24 6.16 l-4.96 0 z M69.256 28.8 l3.44 0 l-1.72 -8.56 z M83.848 40 l0 -4.48 l0.84 -0.56 l0 -17.92 l-0.84 -0.56 l0 -4.48 l12.8 0 l3.72 3.72 l0 10.76 l-3.72 3.72 l-6.92 0 l0 4.76 l0.84 0.56 l0 4.48 l-6.72 0 z M89.728 25.16 l4.84 0 l0.76 -0.76 l0 -6.6 l-0.76 -0.76 l-4.84 0 l0 8.12 z M105.08 40 l0 -4.48 l0.84 -0.56 l0 -17.92 l-0.84 -0.56 l0 -4.48 l12.8 0 l3.72 3.72 l0 10.76 l-3.72 3.72 l-6.92 0 l0 4.76 l0.84 0.56 l0 4.48 l-6.72 0 z M110.96 25.16 l4.84 0 l0.76 -0.76 l0 -6.6 l-0.76 -0.76 l-4.84 0 l0 8.12 z"></path></g></svg>
