<?xml version="1.0" encoding="UTF-8"?>
<!DOCTYPE svg PUBLIC "-//W3C//DTD SVG 1.1//EN" "http://www.w3.org/Graphics/SVG/1.1/DTD/svg11.dtd">
<!-- Creator: CorelDRAW X8 -->
<svg xmlns="http://www.w3.org/2000/svg" xml:space="preserve" width="65.7647mm" height="12.9735mm" version="1.1" style="shape-rendering:geometricPrecision; text-rendering:geometricPrecision; image-rendering:optimizeQuality; fill-rule:evenodd; clip-rule:evenodd"
viewBox="0 0 8112 1600"
 xmlns:xlink="http://www.w3.org/1999/xlink">
 <defs>
  <style type="text/css">
   <![CDATA[
    .fil0 {fill:black}
   ]]>
  </style>
 </defs>
 <g id="Слой_x0020_1">
  <metadata id="CorelCorpID_0Corel-Layer"/>
  <path class="fil0" d="M16 515l0 14c0,229 210,483 420,488 -103,154 -225,304 -436,353l70 230c401,0 608,-569 678,-569l271 0 0 542 244 0 0 -1573 -705 0c-293,0 -542,220 -542,515zm4313 1058l230 0 0 -515 597 0 0 515 244 0 0 -1220 -244 0 0 447 -597 0 0 -447 -230 0 0 1220zm-2726 0l244 0 0 -976 596 0 0 976 245 0 0 -1234 -1085 0 0 1234zm4109 0l217 0c71,0 508,-779 610,-854l0 854 244 0 0 -1220 -256 1 -571 839 0 -840 -244 0 0 1220zm1370 -854l0 95c0,147 149,314 284,325 -40,60 -79,113 -140,158 -21,15 -199,111 -199,113 0,79 28,200 114,183 87,-17 162,-51 215,-98 74,-64 93,-77 154,-158 31,-40 101,-171 141,-171l217 0 0 407 244 0 0 -1207 -637 0c-179,0 -393,175 -393,353zm244 54c0,97 73,190 162,190l380 0 0 -380 -407 0c-69,0 -135,103 -135,190zm-4449 217c0,346 212,610 584,610l54 0c380,0 569,-284 569,-637 0,-341 -209,-624 -529,-624l-149 0c-337,0 -529,290 -529,651zm570 380l95 0c387,0 400,-800 -27,-800l-68 0c-429,0 -426,800 0,800zm-3160 -882l0 68c0,136 144,244 298,244l434 0 0 -556 -420 0c-169,0 -312,92 -312,244z"/>
 </g>
</svg>
